<?xml version="1.0" encoding="UTF-8"?>
<svg width="1280" height="257.89" version="1.1" viewBox="0 0 338.67 68.233" xml:space="preserve" xmlns="http://www.w3.org/2000/svg"><defs><style>.cls-1{fill:none;}.cls-2{fill:#1c2b33;}.cls-3{clip-path:url(#clip-path);}.cls-4{clip-path:url(#b);}.cls-5{fill:url(#a);}</style><clipPath id="b"><rect class="cls-1" x="994.99" y="995" width="1514.8" height="1010"/></clipPath><linearGradient id="a" x1="1865.5" x2="1449.1" y1="1532.9" y2="987.28" gradientTransform="matrix(.26458 0 0 .26458 -943.71 355.69)" gradientUnits="userSpaceOnUse"><stop stop-color="#0869e1" offset=".1336"/><stop stop-color="#0064e0" offset=".8727"/></linearGradient><style>.cls-1{fill:none;}.cls-2{fill:#fff;}</style><style>.cls-1{fill:none;}.cls-2{fill:#1c2b33;}.cls-3{clip-path:url(#clip-path);}.cls-4{clip-path:url(#b);}.cls-5{fill:url(#a);}</style><linearGradient id="d" x1="61" x2="259" y1="117" y2="127" gradientTransform="matrix(1.4176 0 0 1.4176 -1809.6 3011.4)" gradientUnits="userSpaceOnUse"><stop stop-color="#0064e1" offset="0"/><stop stop-color="#0064e1" offset=".4"/><stop stop-color="#0073ee" offset=".83"/><stop stop-color="#0082fb" offset="1"/></linearGradient><linearGradient id="c" x1="45" x2="45" y1="139" y2="66" gradientTransform="matrix(1.4176 0 0 1.4176 -1809.6 3011.4)" gradientUnits="userSpaceOnUse"><stop stop-color="#0082fb" offset="0"/><stop stop-color="#0064e0" offset="1"/></linearGradient></defs><g transform="translate(1809.6 -3011.4)"><g transform="matrix(.252 0 0 .252 -1353.6 2252.6)"><path class="cls-2" d="m-1316.4 3020h50.937l86.611 156.67 86.61-156.67h49.834v257.44h-41.558v-197.31l-75.945 136.63h-38.984l-75.945-136.63v197.31h-41.558z" stroke-width=".27083"/><path class="cls-2" d="m-908.33 3282q-28.872 0-50.752-12.78-21.885-12.78-34.111-35.398-12.231-22.619-12.228-51.856 0-29.605 11.953-52.408 11.952-22.799 33.192-35.675 21.24-12.868 48.822-12.872 27.398 0 47.168 12.963 19.764 12.967 30.432 36.319 10.663 23.355 10.666 54.799v11.399h-141.04q3.8626 23.542 19.033 37.054 15.17 13.517 38.34 13.515 18.572 0 31.997-5.5166 13.421-5.5164 25.193-16.733l22.066 27.031q-32.919 30.161-80.727 30.159zm30.342-152.72q-13.059-13.33-34.203-13.332-20.597 0-34.479 13.609-13.886 13.608-17.562 36.594h101.14q-1.8406-23.538-14.895-36.871z" stroke-width=".27083"/><path class="cls-2" d="m-772.8 3119.7h-38.249v-34.02h38.249v-56.269h40.087v56.269h58.108v34.02h-58.108v86.242q0 21.513 7.3554 30.708 7.3518 9.1978 25.193 9.1942 7.9031 0 13.424-0.6434 5.5165-0.6411 12.136-1.7472v33.651a113.6 113.6 0 0 1-15.354 3.3113 120.84 120.84 0 0 1-17.929 1.287q-64.914 0-64.911-70.98z" stroke-width=".27083"/><path class="cls-2" d="m-465.7 3277.4h-39.352v-26.847q-10.482 15.081-26.663 23.261-16.183 8.1797-36.778 8.1845-25.376 0-44.96-12.966-19.584-12.964-30.801-35.673-11.218-22.711-11.217-51.948 0-29.421 11.402-52.042 11.399-22.616 31.536-35.49 20.136-12.868 46.247-12.872 19.676 0 35.307 7.6324a69.802 69.802 0 0 1 25.928 21.606v-24.64h39.352zm-40.087-124.67q-6.4394-16.366-20.32-25.838-13.886-9.469-32.088-9.469-25.747 0-41.006 17.285-15.266 17.286-15.263 46.708 0 29.608 14.711 46.892 14.709 17.286 39.904 17.285 18.57 0 33.099-9.563 14.524-9.5572 20.963-25.744z" stroke-width=".27083"/><path d="m-1765.6 3190c0 15.566 3.4165 27.516 7.882 34.746 5.8549 9.4698 14.588 13.482 23.49 13.482 11.483 0 21.988-2.8494 42.231-30.848 16.218-22.441 35.328-53.941 48.186-73.689l21.775-33.456c15.126-23.235 32.634-49.064 52.708-66.572 16.388-14.29 34.066-22.228 51.857-22.228 29.87 0 58.322 17.309 80.096 49.773 23.83 35.554 35.398 80.337 35.398 126.55 0 27.474-5.4154 47.661-14.63 63.609-8.9027 15.424-26.255 30.834-55.444 30.834v-43.975c24.993 0 31.23-22.966 31.23-49.249 0-37.454-8.7327-79.019-27.97-108.72-13.652-21.066-31.344-33.938-50.808-33.938-21.052 0-37.993 15.878-57.031 44.188-10.122 15.041-20.513 33.371-32.18 54.054l-12.844 22.753c-25.801 45.747-32.336 56.167-45.237 73.363-22.611 30.111-41.92 41.523-67.338 41.523-30.153 0-49.22-13.056-61.029-32.733-9.6399-16.034-14.375-37.071-14.375-61.043z" fill="#0081fb" stroke-width="1.4176"/><path d="m-1774.9 3064.3c20.187-31.117 49.32-52.878 82.733-52.878 19.351 0 38.588 5.7272 58.676 22.129 21.973 17.933 45.393 47.462 74.61 96.13l10.476 17.465c25.291 42.132 39.68 63.808 48.1 74.029 10.831 13.127 18.415 17.04 28.268 17.04 24.993 0 31.23-22.966 31.23-49.249l38.843-1.2191c0 27.474-5.4154 47.661-14.63 63.609-8.9027 15.424-26.255 30.834-55.444 30.834-18.146 0-34.222-3.9411-51.999-20.712-13.666-12.872-29.643-35.739-41.934-56.294l-36.561-61.072c-18.344-30.649-35.172-53.502-44.911-63.85-10.476-11.128-23.944-24.568-45.435-24.568-17.394 0-32.166 12.206-44.528 30.876z" fill="url(#d)" stroke-width="1.4176"/><path d="m-1692.9 3055.7c-17.394 0-32.166 12.206-44.528 30.876-17.48 26.382-28.183 65.679-28.183 103.42 0 15.566 3.4165 27.516 7.882 34.746l-37.539 24.724c-9.6399-16.034-14.375-37.071-14.375-61.043 0-43.592 11.965-89.028 34.718-124.11 20.187-31.117 49.32-52.878 82.733-52.878z" fill="url(#c)" stroke-width="1.4176"/></g></g></svg>
